<svg xmlns="http://www.w3.org/2000/svg" width="860" height="430" viewBox="0 0 860 430" role="img" aria-label="ph20sr@github: ~">
  <style>
    text { font-family: ui-monospace, 'JetBrains Mono', SFMono-Regular, Menlo, Consolas, 'Liberation Mono', monospace; fill: #c9d1d9; }
    .muted { fill: #8b949e; } .green { fill: #3fb950; } .blue { fill: #58a6ff; }
    .purple { fill: #d2a8ff; } .orange { fill: #ffa657; }
    .cursor { animation: blink 1.1s steps(1) infinite; }
    /* Visível por padrão: a animação só faz a entrada (fill "backwards"),
       assim renderizadores sem animação mostram o card completo. */
    .fade { animation: fade .5s ease-out backwards; }
    @keyframes blink { 50% { opacity: 0; } }
    @keyframes fade { from { opacity: 0; } }
    @media (prefers-reduced-motion: reduce) { .cursor, .fade { animation: none; opacity: 1; } }
  </style>
  <rect x="0.5" y="0.5" width="859" height="429" rx="12" fill="#0d1117" stroke="#30363d"/>
  <path d="M0.5 12.5a12 12 0 0 1 12-12h835a12 12 0 0 1 12 12v24h-859z" fill="#010409"/>
  <line x1="0.5" y1="36.5" x2="859.5" y2="36.5" stroke="#30363d"/>
  <circle cx="22" cy="18.5" r="6" fill="#ff5f56"/><circle cx="42" cy="18.5" r="6" fill="#ffbd2e"/><circle cx="62" cy="18.5" r="6" fill="#27c93f"/>
  <text x="430" y="23" text-anchor="middle" font-size="12" class="muted">ph20sr@github: ~</text>
  <text x="20" y="64" font-size="14" class="fade" style="animation-delay:0s" xml:space="preserve"><tspan class="green">ph20sr@github</tspan><tspan class="muted"> ~ </tspan><tspan class="blue">$</tspan> whoami</text>
    <rect x="20" y="84" width="360" height="326" rx="8" fill="#010409" stroke="#30363d"/>
    <g class="fade" style="animation-delay:.15s">
    <defs>
      <linearGradient id="batFill" x1="0" y1="0" x2="0" y2="1">
        <stop offset="0" stop-color="#ffe680"/><stop offset="1" stop-color="#e3a008"/>
      </linearGradient>
      <radialGradient id="batHalo" cx=".5" cy=".5" r=".5">
        <stop offset="0" stop-color="#e3a008" stop-opacity=".18"/><stop offset="1" stop-color="#e3a008" stop-opacity="0"/>
      </radialGradient>
      <filter id="batGlow" x="-25%" y="-40%" width="150%" height="180%"><feGaussianBlur stdDeviation="4"/></filter>
    </defs>
    <ellipse cx="200" cy="194.5" rx="195" ry="120" fill="url(#batHalo)"/>
    <g transform="translate(50 112) scale(1.5)">
      <g fill="#ffd33d" filter="url(#batGlow)" opacity=".55"><path d="M100 31 L104.5 31 L108.5 15 L112 34 C117 37 121 34 123 27 C140 20 163 21 190 35 C180 42 176 52 178 64 C169 55 157 55 151 66 C144 57 132 57 127 70 C117 76 108 82 100 96 Z"/><path d="M100 31 L104.5 31 L108.5 15 L112 34 C117 37 121 34 123 27 C140 20 163 21 190 35 C180 42 176 52 178 64 C169 55 157 55 151 66 C144 57 132 57 127 70 C117 76 108 82 100 96 Z" transform="translate(200 0) scale(-1 1)"/>
        <animate attributeName="opacity" values=".35;.75;.35" dur="4s" repeatCount="indefinite"/>
      </g>
      <g fill="url(#batFill)"><path d="M100 31 L104.5 31 L108.5 15 L112 34 C117 37 121 34 123 27 C140 20 163 21 190 35 C180 42 176 52 178 64 C169 55 157 55 151 66 C144 57 132 57 127 70 C117 76 108 82 100 96 Z"/><path d="M100 31 L104.5 31 L108.5 15 L112 34 C117 37 121 34 123 27 C140 20 163 21 190 35 C180 42 176 52 178 64 C169 55 157 55 151 66 C144 57 132 57 127 70 C117 76 108 82 100 96 Z" transform="translate(200 0) scale(-1 1)"/></g>
    </g></g>
    <text x="200" y="330" font-size="13" text-anchor="middle" xml:space="preserve"><tspan class="green">&gt;</tspan> desenvolvedor full stack</text>
    <text x="200" y="352" font-size="12" text-anchor="middle" class="muted">sites · CRMs · cobrança recorrente</text>
    <text x="200" y="384" font-size="11" text-anchor="middle" class="muted" xml:space="preserve">vynex systems  ·  brasil</text>
    <g class="fade" style="animation-delay:0.2s">
      <rect x="400" y="84" width="140" height="70" rx="8" fill="#010409" stroke="#30363d"/>
      <text x="412" y="104" font-size="11" class="muted">contribuições</text>
      <text x="412" y="128" font-size="22" font-weight="700" class="green">401</text>
      <text x="412" y="144" font-size="10" class="muted">≈ 16 por dia ativo</text>
    </g><g class="fade" style="animation-delay:0.28s">
      <rect x="550" y="84" width="140" height="70" rx="8" fill="#010409" stroke="#30363d"/>
      <text x="562" y="104" font-size="11" class="muted">streak atual</text>
      <text x="562" y="128" font-size="22" font-weight="700" class="green">3</text>
      <text x="562" y="144" font-size="10" class="muted">dias seguidos</text>
    </g><g class="fade" style="animation-delay:0.36s">
      <rect x="700" y="84" width="140" height="70" rx="8" fill="#010409" stroke="#30363d"/>
      <text x="712" y="104" font-size="11" class="muted">maior streak</text>
      <text x="712" y="128" font-size="22" font-weight="700" class="green">4</text>
      <text x="712" y="144" font-size="10" class="muted">dias</text>
    </g><g class="fade" style="animation-delay:0.44s">
      <rect x="400" y="164" width="140" height="70" rx="8" fill="#010409" stroke="#30363d"/>
      <text x="412" y="184" font-size="11" class="muted">dias ativos</text>
      <text x="412" y="208" font-size="22" font-weight="700" class="green">25</text>
      <text x="412" y="224" font-size="10" class="muted">7% do ano</text>
    </g><g class="fade" style="animation-delay:0.52s">
      <rect x="550" y="164" width="140" height="70" rx="8" fill="#010409" stroke="#30363d"/>
      <text x="562" y="184" font-size="11" class="muted">dia mais ativo</text>
      <text x="562" y="208" font-size="22" font-weight="700" class="green">terça</text>
      <text x="562" y="224" font-size="10" class="muted">151 contribuições</text>
    </g><g class="fade" style="animation-delay:0.6000000000000001s">
      <rect x="700" y="164" width="140" height="70" rx="8" fill="#010409" stroke="#30363d"/>
      <text x="712" y="184" font-size="11" class="muted">projetos</text>
      <text x="712" y="208" font-size="22" font-weight="700" class="green">37</text>
      <text x="712" y="224" font-size="10" class="muted">open source</text>
    </g>
    <text x="400" y="262" font-size="11" class="muted">contribuições por mês</text>
    <g class="fade" style="animation-delay:.7s"><rect x="403" y="320" width="30.666666666666664" height="2" rx="2" fill="#161b22"><title>nov: 0</title></rect><text x="418.3333333333333" y="335" font-size="9" text-anchor="middle" class="muted">nov</text><rect x="439.6666666666667" y="320" width="30.666666666666664" height="2" rx="2" fill="#161b22"><title>dez: 0</title></rect><text x="455" y="335" font-size="9" text-anchor="middle" class="muted">dez</text><rect x="476.3333333333333" y="319" width="30.666666666666664" height="3" rx="2" fill="#0e4429"><title>jan: 3</title></rect><text x="491.66666666666663" y="315" font-size="9" text-anchor="middle" class="muted">3</text><text x="491.66666666666663" y="335" font-size="9" text-anchor="middle" class="muted">jan</text><rect x="513" y="319" width="30.666666666666664" height="3" rx="2" fill="#0e4429"><title>fev: 7</title></rect><text x="528.3333333333334" y="315" font-size="9" text-anchor="middle" class="muted">7</text><text x="528.3333333333334" y="335" font-size="9" text-anchor="middle" class="muted">fev</text><rect x="549.6666666666666" y="320" width="30.666666666666664" height="2" rx="2" fill="#161b22"><title>mar: 0</title></rect><text x="565" y="335" font-size="9" text-anchor="middle" class="muted">mar</text><rect x="586.3333333333333" y="320" width="30.666666666666664" height="2" rx="2" fill="#161b22"><title>abr: 0</title></rect><text x="601.6666666666666" y="335" font-size="9" text-anchor="middle" class="muted">abr</text><rect x="623" y="319" width="30.666666666666664" height="3" rx="2" fill="#0e4429"><title>mai: 11</title></rect><text x="638.3333333333334" y="315" font-size="9" text-anchor="middle" class="muted">11</text><text x="638.3333333333334" y="335" font-size="9" text-anchor="middle" class="muted">mai</text><rect x="659.6666666666666" y="282.25" width="30.666666666666664" height="39.75" rx="2" fill="#39d353"><title>jun: 159</title></rect><text x="675" y="278.25" font-size="9" text-anchor="middle" class="muted">159</text><text x="675" y="335" font-size="9" text-anchor="middle" class="muted">jun</text><rect x="696.3333333333333" y="319" width="30.666666666666664" height="3" rx="2" fill="#0e4429"><title>jul: 6</title></rect><text x="711.6666666666666" y="315" font-size="9" text-anchor="middle" class="muted">6</text><text x="711.6666666666666" y="335" font-size="9" text-anchor="middle" class="muted">jul</text><rect x="733" y="319" width="30.666666666666664" height="3" rx="2" fill="#0e4429"><title>ago: 6</title></rect><text x="748.3333333333334" y="315" font-size="9" text-anchor="middle" class="muted">6</text><text x="748.3333333333334" y="335" font-size="9" text-anchor="middle" class="muted">ago</text><rect x="769.6666666666666" y="319" width="30.666666666666664" height="3" rx="2" fill="#0e4429"><title>set: 8</title></rect><text x="785" y="315" font-size="9" text-anchor="middle" class="muted">8</text><text x="785" y="335" font-size="9" text-anchor="middle" class="muted">set</text><rect x="806.3333333333333" y="272" width="30.666666666666664" height="50" rx="2" fill="#39d353"><title>out: 200</title></rect><text x="821.6666666666666" y="268" font-size="9" text-anchor="middle" class="muted">200</text><text x="821.6666666666666" y="335" font-size="9" text-anchor="middle" class="muted">out</text></g>
    <clipPath id="lang"><rect x="400" y="372" width="440" height="8" rx="4"/></clipPath>
    <text x="400" y="362" font-size="11" class="muted">linguagens (cada projeto com o mesmo peso)</text>
    <g clip-path="url(#lang)"><rect x="400" y="372" width="296.6674287081248" height="8" fill="#f1e05a"/><rect x="696.6674287081248" y="372" width="108.62174060277684" height="8" fill="#4F5D95"/><rect x="805.2891693109017" y="372" width="18.130097662485046" height="8" fill="#e34c26"/><rect x="823.4192669733867" y="372" width="7.883949444440435" height="8" fill="#dea584"/><rect x="831.3032164178271" y="372" width="4.688841134721412" height="8" fill="#663399"/></g>
    <circle cx="405" cy="398" r="4" fill="#f1e05a"/><text x="414" y="402" font-size="11">JavaScript <tspan class="muted">67%</tspan></text><circle cx="527.4" cy="398" r="4" fill="#4F5D95"/><text x="536.4" y="402" font-size="11">PHP <tspan class="muted">25%</tspan></text><circle cx="603.5999999999999" cy="398" r="4" fill="#e34c26"/><text x="612.5999999999999" y="402" font-size="11">HTML <tspan class="muted">4%</tspan></text><circle cx="679.8" cy="398" r="4" fill="#dea584"/><text x="688.8" y="402" font-size="11">Rust <tspan class="muted">2%</tspan></text><circle cx="756" cy="398" r="4" fill="#663399"/><text x="765" y="402" font-size="11">CSS <tspan class="muted">1%</tspan></text>
</svg>